<svg xmlns="http://www.w3.org/2000/svg" width="4274" height="4275" overflow="hidden"><defs><clipPath id="a"><path d="M63-900h4274v4275H63z"/></clipPath></defs><g fill-rule="evenodd" clip-path="url(#a)" transform="translate(-63 900)"><path fill="#FFF" d="M63 1237.5C63 56.991 1019.77-900 2200-900S4337 56.991 4337 1237.5c0 1180.51-956.77 2137.5-2137 2137.5S63 2418.01 63 1237.5Z"/><path fill="#5F1025" d="m2098.07 1617.28 268.48-7.28 83.45 912h-439l87.07-904.72Z"/><path fill="#8EC21F" d="M1432 1597.5c0-54.95 44.55-99.5 99.5-99.5h1293c54.95 0 99.5 44.55 99.5 99.5s-44.55 99.5-99.5 99.5h-1293c-54.95 0-99.5-44.55-99.5-99.5Z"/><path fill="#F9B400" d="M1700 1294c0-66.27 53.73-120 120-120h1046c66.27 0 120 53.73 120 120 0 66.27-53.73 120-120 120H1820c-66.27 0-120-53.73-120-120Z"/><path fill="#E61974" d="M1490 1022.5c0-51.086 41.41-92.5 92.5-92.5h919c51.09 0 92.5 41.414 92.5 92.5 0 51.09-41.41 92.5-92.5 92.5h-919c-51.09 0-92.5-41.41-92.5-92.5Z"/><path fill="#22B2E7" d="M1711 714.001C1711 630.053 1779.05 562 1863 562h688c83.95 0 152 68.053 152 152.001 0 83.947-68.05 152-152 152L1863 866c-83.95 0-152-68.053-152-152.001Z"/><path fill="#6D2D83" d="M2378.64 2948.56c19.25-2.78 35 .53 47.24 9.92 12.25 9.4 20.07 27.7 23.48 54.9 3.01 26.47.07 46.11-8.81 58.91-8.87 12.79-22.86 20.22-41.96 22.26l-31.38 3.79-17.22-146.32Zm-171.56-14.22-.21 197.61 31.32-.03.21-197.61Zm191.51-12.41c-6.57-.15-13.48.23-20.74 1.16l-61.93 7.48 23.12 196.47 62.21-7.52c29.86-3.67 51.66-14.94 65.41-33.82 13.75-18.88 18.73-44.93 14.95-78.16-4.16-33.08-15.23-56.35-33.23-69.81-13.5-10.08-30.09-15.35-49.79-15.8Zm-458.02-10.96-28.87 195.26 27.99 4.11 23.14-156.47 25.51 163.63 31.8 4.68 72.56-148.93.27.04-23.1 156.21 30.44 4.47 28.87-195.25-45.11-6.63-71.38 146.58-.27-.04-25.1-160.78Zm685.45-2.46c8 .87 15.28 3.33 21.83 7.4 13.11 8.13 22.7 25.57 28.76 52.3 5.59 26.04 4.59 45.86-2.99 59.47-7.58 13.62-20.78 22.38-39.59 26.31l-30.86 6.88-31.49-143.88 28.18-6.28c9.44-2.33 18.16-3.06 26.16-2.2Zm-8.92-26.27c-6.55.5-13.39 1.57-20.52 3.21l-60.92 13.58 42.29 193.18 61.18-13.64c29.36-6.6 49.96-19.98 61.79-40.12 11.83-20.15 14.24-46.56 7.21-79.25-7.38-32.5-20.68-54.56-39.92-66.16-14.42-8.7-31.46-12.3-51.11-10.8Zm155.9-51.72-28.97 11.27 70.57 184.01 118.47-46.06-8.79-22.91-89.49 34.8Zm-1170.2-12.11-67.56 185.44 26.58 9.72 54.13-148.62-7.95 165.51 30.19 11.04 100.99-131.19.26.1-54.04 148.35 28.9 10.57 67.55-185.44-42.83-15.67-99.37 129.14-.26-.1 7.78-162.62Zm-154.99-27.86.25.12-10 88.25-54.99-27.63Zm4.13-40.24-154.47 143.21 27.5 13.82 39.88-38.03 70.71 35.53-6.49 54.81 29.46 14.8 22.38-209.59Zm1564.12-27.76-106.49 60.58 96.94 172.38 107.69-61.26-12.43-22.09-80.4 45.74-31.32-55.7 68.2-38.8-12.42-22.08-68.2 38.79-28.36-50.41 79.21-45.06Zm-1766.3-65.29 26.66 17.49c11.19 7.3 18.17 15.1 20.96 23.41 2.78 8.3 1.1 17.18-5.03 26.65-6.5 9.94-14.22 15.56-23.18 16.88-8.95 1.31-19.01-1.69-30.18-9l-26.88-17.65Zm-12.25-38.08L1129.5 2784.9l25.97 17.05 44.13-67.73 29.88 19.61-4.62 93.66 30.33 19.91 4.7-102.85.45-.69c11.76 2.88 22.71 2.74 32.84-.43 10.14-3.18 18.97-10.4 26.51-21.67 10.17-15.82 12.92-31.07 8.24-45.74-4.68-14.68-16.36-28.18-35.05-40.49Zm2006.19-35.69c-6.49.63-14.42 2.75-23.8 6.36-9.38 3.61-19.42 9-30.12 16.19-17.99 12.63-28.96 26.33-32.92 41.08-3.96 14.76-1.39 28.94 7.72 42.55 9.3 13.29 19.99 21.12 32.08 23.5 12.09 2.37 24.9.92 38.42-4.35l20.37-7.26c10.79-4.08 19.66-5.59 26.61-4.54 6.95 1.06 12.86 5.24 17.73 12.56 5.36 7.96 6.66 16.18 3.89 24.65-2.77 8.48-9.82 16.66-21.15 24.53a125.583 125.583 0 0 1-26.57 13.63c-9.42 3.49-18.09 5.49-26 5.99l8.06 25.17c8.11-.46 17.58-2.85 28.4-7.17 10.83-4.32 21.64-10.13 32.43-17.44 19.06-13.3 30.69-27.82 34.88-43.54 4.2-15.73 1.18-31.24-9.04-46.52-9.69-14.02-20.68-22.01-32.98-23.98-12.31-1.96-26.13-.01-41.48 5.86l-19.75 7.18c-9.86 3.56-18.08 4.8-24.68 3.71-6.6-1.09-12.16-5.01-16.7-11.77-4.62-7.07-5.53-14.33-2.72-21.77 2.81-7.45 8.85-14.38 18.14-20.8 8.99-6.06 17.39-10.49 25.22-13.29 7.82-2.8 15.01-4.48 21.57-5.04Zm-2144.88-25.67.2.18-30.59 83.38-46.85-40Zm13.53-38.12-183.868 102.28 23.425 20 47.72-27.43 60.233 51.42-19.27 51.7 25.09 21.43 71.35-198.33Zm2290.72-73.16c-6.86 1.52-14.54 4.65-23.03 9.4-8.49 4.74-17.02 10.79-25.59 18.15-12.34 10.55-21.59 22.97-27.73 37.27-6.15 14.29-7.61 29.95-4.4 46.98 3.22 17.02 12.7 34.91 28.44 53.65 15.09 17.37 30.47 29.29 46.13 35.77 15.66 6.48 31.01 8.15 46.04 5.02 15.04-3.14 29.17-10.44 42.39-21.92 9.78-8.57 18.06-17.37 24.84-26.38 6.77-9.02 11.45-17.15 14.02-24.39l-21.12-14.47c-2.84 6.45-6.93 13.49-12.27 21.15-5.34 7.65-11.73 14.77-19.16 21.37-14.55 12.51-30.23 17.27-47.04 14.26-16.8-3.01-33.63-14.2-50.47-33.55-11.31-13.42-18.35-26.07-21.12-37.97-2.78-11.9-2.3-22.75 1.46-32.54 3.75-9.79 9.77-18.22 18.06-25.31 6.8-5.87 13.72-10.72 20.74-14.55 7.02-3.83 13.92-6.57 20.7-8.24Zm-2483.761-86.61c-7.942-.39-16.18.41-24.716 2.38-17.073 3.96-34.626 14.25-52.659 30.88-16.466 15.73-27.494 31.6-33.083 47.61-5.59 16-6.414 31.55-2.47 46.64 3.943 15.08 11.98 29.11 24.113 42.08 9.456 9.92 19.219 18.24 29.291 24.94 10.071 6.7 18.934 11.32 26.59 13.87l64.372-60.69-47.895-51.27-17.647 16.64 27.234 29.15-34.091 32.15c-4.08-1.69-8.649-4.37-13.708-8.06a102.04 102.04 0 0 1-14.006-12.32c-13.583-15.03-18.834-31.08-15.755-48.15 3.079-17.08 13.153-33.68 30.22-49.82 16.172-14.85 33.169-22.97 50.991-24.35 17.822-1.38 33.29 4.61 46.404 17.98 6.865 7.53 12.226 15.02 16.081 22.46 3.856 7.44 6.711 14.26 8.566 20.47l23.319-11.78c-1.69-7.15-4.98-15.02-9.87-23.59-4.898-8.57-11.559-17.41-19.984-26.53-10.887-11.8-23.677-20.45-38.367-25.97a75.589 75.589 0 0 0-22.93-4.72Zm2612.731-72.82-20.33 23.61 62.31 54.08-59.54 69.18-62.3-54.07-20.33 23.62 149.13 129.41 20.32-23.62-67.71-58.76 59.54-69.18 67.71 58.75 20.32-23.61Zm151.05-134.39c16.87-.81 35.75 5.9 56.64 20.13 19.18 13.72 31.21 28.68 36.08 44.9 4.87 16.22 2.68 31.23-6.56 45.05-10.3 14.74-23.95 22.43-40.96 23.09-17 .65-36.05-6.22-57.17-20.63-19.05-13.64-30.91-28.54-35.6-44.69-4.69-16.15-2.44-31.08 6.75-44.79 10.34-14.57 23.94-22.26 40.82-23.06Zm-2892.473-3.64-162.352 111.45 16.244 23.91 126.93-87.13.154.23-78.818 157.96 21.349 31.43 162.352-111.45-16.089-23.69-121.026 83.09-.155-.23 72.605-154.37Zm2912.453-26.52c-17-1.99-32.4.41-46.19 7.21s-25.32 16.96-34.61 30.47c-9.52 13.89-14.96 28.69-16.33 44.4-1.36 15.7 1.87 31.22 9.7 46.55 7.83 15.33 20.78 29.38 38.84 42.14 18.77 12.79 36.6 20.2 53.49 22.23 16.88 2.03 32.22-.37 46.01-7.2 13.79-6.84 25.42-17.15 34.91-30.94 9.37-13.68 14.75-28.34 16.15-43.99 1.39-15.66-1.78-31.15-9.5-46.48-7.73-15.34-20.58-29.37-38.56-42.09-18.93-12.87-36.9-20.31-53.91-22.3ZM683.049 1957.58l-112.223 61.58c-21.245 11.94-33.974 26.84-38.185 44.71-4.212 17.87-.581 37.39 10.892 58.56 11.373 21.1 25.465 34.4 42.278 39.91 16.812 5.51 36.267 2.29 58.363-9.67l111.498-61.19-14.052-25.91-110.292 60.52c-16.486 8.92-29.983 11.8-40.493 8.63-10.509-3.16-19.03-11.02-25.561-23.6-7.048-12.5-9.13-24.25-6.244-35.26 2.886-11 12.452-21.05 28.698-30.16l110.292-60.52Zm3123.611-14.22c13.55.94 28.63 5.99 45.22 15.14 20.38 11.85 33.75 25.62 40.11 41.3 6.36 15.69 5.59 30.84-2.33 45.46-8.89 15.64-21.77 24.58-38.64 26.83s-36.48-2.8-58.85-15.15c-20.24-11.8-33.45-25.51-39.62-41.15-6.17-15.64-5.32-30.71 2.56-45.22 8.93-15.47 21.76-24.4 38.49-26.79 4.18-.6 8.54-.74 13.06-.42Zm4.03-31.48c-17.12-.38-32.23 3.46-45.32 11.53-13.1 8.06-23.64 19.25-31.63 33.57-8.19 14.73-12.23 29.97-12.12 45.73.1 15.77 4.76 30.91 13.99 45.43 9.22 14.53 23.42 27.29 42.6 38.3 19.89 10.96 38.33 16.66 55.34 17.1 17 .43 32.05-3.4 45.14-11.5 13.1-8.09 23.73-19.45 31.88-34.07 8.07-14.5 12.06-29.6 11.99-45.31-.08-15.71-4.67-30.84-13.79-45.38-9.12-14.53-23.23-27.29-42.32-38.26-20.05-11.04-38.64-16.75-55.76-17.14Zm-3200.9-121.77-180.948 79.32 49.252 113.82 23.185-10.17-36.775-84.98 58.468-25.63 31.193 72.08 23.185-10.16-31.192-72.08 52.923-23.2 36.227 83.71 23.186-10.16Zm3389.47-23.85-34.22 90.05-160.68-61.31-11.08 29.16 183.52 70.03 45.3-119.21ZM455.883 931.558l-21.373 69.672-68.926.07 55.717 42.99-21.374 69.67 55.808-43.11 55.717 42.99-21.227-69.63 55.809-43.1-68.926.07Zm3515.387-3.733-21.37 69.67-68.92.073 55.71 42.982-21.37 69.67 55.81-43.1 55.71 42.98-21.22-69.62 55.81-43.103-68.93.073ZM1934.08 201.454c6.18.707 11.63 2.488 16.37 5.344 9.46 5.711 15.49 15.164 18.1 28.36 1.51 8.613 1.04 17.195-1.41 25.748s-5.98 17.001-10.59 25.346a529.463 529.463 0 0 1-14.4 24.499l-13.11 22.391 57.46-11.273 3.63 18.893-91.25 17.902-2.66-13.814 25.06-37.805c7.81-12.283 13.89-23.648 18.25-34.095 4.35-10.446 5.72-20.361 4.12-29.743-1.8-9.065-5.35-15.202-10.66-18.412-5.31-3.209-12.18-3.952-20.61-2.228-5.01 1.097-10.17 3.251-15.48 6.462-5.31 3.211-9.86 6.616-13.65 10.215l-8.7-16.845c4.11-3.899 9.56-7.743 16.34-11.533 6.78-3.79 14.27-6.559 22.47-8.308 7.63-1.443 14.54-1.81 20.72-1.104Zm533.48-7.473 74.38 16.693-4.22 18.788-55.88-12.543-10.89 37.236c2.66-.27 5.85-.261 9.57.027 3.73.287 6.98.734 9.76 1.34 13.95 3.098 24.17 9.281 30.65 18.55 6.47 9.269 8.08 21.583 4.82 36.943-3.25 13.612-10.38 23.858-21.41 30.736-11.03 6.88-24.41 8.722-40.15 5.526-8.08-1.867-15.54-4.55-22.39-8.05-6.85-3.499-12.21-7.303-16.1-11.411l9.71-16.918c3.32 3.286 7.48 6.457 12.49 9.512 5 3.056 10.13 5.223 15.38 6.503 9.66 2.103 17.81 1.254 24.45-2.548 6.64-3.802 11.05-10.319 13.23-19.55 2.06-9.643.81-17.245-3.75-22.804-4.56-5.558-11.72-9.394-21.49-11.506-4.41-.881-9.64-1.16-15.67-.839-6.03.322-11.1.98-15.2 1.974Zm-348.97-5.817c-9.63.345-16.86 4.683-21.68 13.012-4.81 8.329-6.86 21.28-6.13 38.854l.57 12.819c.83 17.448 3.99 30.344 9.49 38.689 5.5 8.344 13.06 12.279 22.67 11.804 9.54-.306 16.71-4.607 21.5-12.9 4.8-8.294 6.83-21.417 6.09-39.37l-.56-12.613c-.86-17.8-4.04-30.764-9.55-38.892-5.51-8.128-12.97-11.929-22.4-11.403Zm-.64-19.032c9.81-.552 18.98 1.29 27.5 5.527 8.53 4.236 15.57 11.443 21.12 21.621 5.56 10.178 8.79 23.902 9.71 41.174l.46 10.339c.62 17.166-1.4 31.149-6.07 41.948-4.67 10.8-11.1 18.805-19.29 24.015-8.2 5.21-17.27 8.014-27.23 8.412-10.22.534-19.63-1.456-28.24-5.969-8.61-4.514-15.67-11.909-21.17-22.187-5.5-10.277-8.69-23.795-9.56-40.552l-.44-9.925c-.62-17.622 1.49-31.824 6.34-42.606 4.84-10.781 11.42-18.685 19.74-23.714 8.31-5.027 17.35-7.722 27.13-8.083Zm195.65-.752 12.95.831-9.85 149.972-24.68-1.584 8.19-124.563-24.21 3.84.93-14.047ZM3567.29 64.438l-90.2 71.249-47.71-61.01-27.55 21.757 201.06 257.091 27.55-21.757-74.54-95.309 90.2-71.249-26.11-33.389-90.2 71.249-26.35-33.691 90.2-71.25Zm-2434.81-27.12L996.056 177.054l-52.676-51.886-30.197 30.929 77.368 76.209L1157.17 61.639ZM2207.5-36.114C1506.95-35.37 938.445 531.574 937.706 1230.19c-.738 698.62 566.574 1264.36 1267.124 1263.61 700.55-.74 1269.06-567.69 1269.79-1266.3.74-698.62-566.57-1264.358-1267.12-1263.614Zm1431.07-2.402-27.55 21.758L3736.6 143.81l-26.94 21.279c-14.78 11.67-31.05 23.178-48.84 34.525-17.78 11.346-34.68 20.646-50.71 27.902l21.1 36.368c18.7-9.092 38.61-20.465 59.74-34.118 21.13-13.652 42.1-28.683 62.92-45.091l36.62-28.931ZM1063.93-89.26 835.83 144.37l24.966 24.593L1088.89-64.669Zm-149.273-12.417c5.887 1.136 11.111 3.848 15.674 8.133 8.674 8.962 11.031 20.605 7.069 34.93-3.962 14.325-13.612 29.446-28.95 45.363-15.662 15.836-30.558 25.857-44.689 30.063-14.131 4.207-25.733 2.034-34.806-6.52-8.725-8.978-11.252-20.723-7.582-35.232 3.671-14.51 13.218-29.8 28.64-45.873 15.578-15.68 30.577-25.531 44.999-29.553 7.211-2.011 13.76-2.448 19.645-1.311Zm1292.933-17.233c743.54-.789 1345.67 601.981 1344.88 1346.331-.78 744.34-604.18 1348.39-1347.73 1349.18-743.54.79-1345.668-601.98-1344.881-1346.33.787-744.341 604.191-1348.391 1347.731-1349.181ZM916.963-142.886c-5.559.045-11.35.756-17.371 2.134-24.082 5.51-48.656 20.896-73.723 46.157-24.295 25.265-38.973 50.015-44.033 74.25-5.061 24.236.489 44.668 16.648 61.295 17.392 16.33 38.086 21.524 62.086 15.583 23.998-5.943 48.187-21.28 72.567-46.01 23.887-24.741 38.578-49.298 44.073-73.67 5.495-24.37.023-45.088-16.417-62.151-12.539-11.86-27.149-17.722-43.83-17.588ZM2203.1-206.303c-796.65.846-1443.154 650.249-1444 1450.483-.846 800.23 644.29 1448.27 1440.94 1447.42 796.65-.84 1443.16-650.25 1444-1450.48.85-800.237-644.28-1448.269-1440.94-1447.423Zm-1.56-14.349c808.04-.858 1462.39 653.343 1461.53 1461.202-.85 807.85-656.59 1463.44-1464.62 1464.3-808.04.86-1462.387-653.34-1461.533-1461.2.854-807.852 656.593-1463.444 1464.623-1464.302Zm833.09-28.772-20.13 28.803 151.02 106.372-47.35 67.736 34.92 24.598 67.49-96.538Zm-833.04-19.526c-838.38.89-1518.745 680.191-1519.629 1517.26-.885 837.07 678.039 1514.93 1516.429 1514.04 838.38-.89 1518.74-680.19 1519.63-1517.26.88-837.072-678.04-1514.93-1516.43-1514.04Zm909.04-52.483c9.28.002 18.86 3.402 28.73 10.199 9.73 7.007 16.17 14.891 19.33 23.651 3.16 8.76 2.26 16.904-2.7 24.433-5.26 7.09-12.52 10.618-21.78 10.582-9.26-.036-18.83-3.449-28.71-10.239-9.72-7.014-16.17-14.885-19.35-23.612-3.18-8.727-2.35-16.779 2.51-24.156 5.36-7.242 12.69-10.862 21.97-10.858Zm216.65-24.191-131.44 188.012 34.92 24.599 53.11-75.964 44.68 31.468 20.36-29.12-44.68-31.468 57.98-82.928Zm-227.52-13.163c-19.16.193-34.5 8.064-46.03 23.614-10.64 16.155-12.76 33.262-6.36 51.322 6.4 18.06 19.44 34.148 39.1 48.264 19.63 13.529 38.98 20.19 58.05 19.984 19.08-.206 34.33-8.003 45.76-23.392 10.64-16.177 12.82-33.319 6.55-51.426-6.27-18.105-19.09-34.117-38.44-48.034-19.92-13.747-39.46-20.524-58.63-20.332Zm-549.72-35.651c8.98.46 18.9 1.907 29.75 4.342 21.69 5.049 38.4 12.057 50.13 21.023 11.72 8.965 16.52 18.899 14.39 29.802-2.72 10.406-11.27 17.123-25.66 20.151-14.4 3.029-32.54 2.102-54.45-2.781-21.82-5.112-38.44-12.133-49.87-21.064-11.43-8.931-16.09-18.669-13.98-29.213 2.78-10.753 11.3-17.645 25.53-20.676 7.12-1.516 15.17-2.044 24.16-1.584Zm-456.39-31.991 4.74 59.69-137.66 11.308-4.73-59.691Zm1005.18-10.192-19.7 28.17 169.59 119.448 19.7-28.17Zm74.71-13.508-20.13 28.803 84.32 59.391 20.13-28.803Zm-1039.66-14.103-223.17 18.333 10.21 128.623 223.16-18.332Zm-745.07-8.509-149.83 75.137 15.92 32.144 108.85-54.583c8.62 22.218 12.64 45.888 12.07 71.009-.58 25.122-5.85 50.416-15.81 75.881-9.97 25.466-24.72 49.822-44.25 73.072l37.63 18.67c35.26-46.26 55.94-93.861 62.02-142.806 6.09-48.943-2.78-98.452-26.6-148.524Zm1054.21-47.333-7.83 34.285 137.58 31.451c-2 8.791-4.01 17.582-6.02 26.373-29.24-3.94-53.44-1.973-72.61 5.902-19.16 7.876-31.06 21.18-35.69 39.909-4.37 21.559 2.4 40.534 20.32 56.928 17.92 16.393 43.99 28.582 78.23 36.565 34.31 7.686 63.09 8.037 86.35 1.056 23.26-6.981 37.6-21.129 43.03-42.444 4-18.875-.92-36.024-14.77-51.446-13.85-15.423-35.06-27.77-63.62-37.043l6.02-26.373 138.34 31.622 7.84-34.285Zm-982.48-24.018-38.23 19.172 153.93 310.721 38.23-19.173-81.16-163.828 50.29-25.218-16.1-32.49-50.29 25.218Zm1054.91-116.816-7.84 34.285 95.98 21.938c-5.98 11.884-15.38 21.296-28.21 28.234-12.84 6.939-27.74 11.51-44.7 13.715-16.97 2.206-34.64 2.151-53.02-.165.51 2.309 1.41 5.971 2.71 10.984l3.88 15.043c1.29 5.013 2.2 8.675 2.71 10.984 28.31 2.664 54.38.579 78.2-6.256 23.83-6.836 42.15-17.73 54.96-32.683 6.06 19.103 18.4 36.94 37.03 53.512 18.62 16.572 40.65 29.585 66.08 39.04 1.6-1.957 4.09-4.934 7.44-8.929 3.36-3.994 6.71-7.947 10.05-11.859 3.34-3.911 5.78-6.719 7.33-8.425-16.03-5.421-31.22-12.782-45.55-22.085-14.33-9.304-26.08-19.933-35.24-31.888-9.17-11.954-14.02-24.62-14.56-37.995l95.6 21.853 7.83-34.286Zm-507.84-8.463-158.36 13.009 2.78 35.044 115.8-9.512 2.99 37.739-115.03 9.45 8.83 111.294c41.97-2.704 79.64-6.509 113-11.414 33.35-4.904 60.55-10.562 81.58-16.973l-6.91-33.542c-13.5 3.968-29.02 7.621-46.54 10.958a821.14 821.14 0 0 1-53.1 8.31c-17.88 2.202-34.09 3.586-48.63 4.153l-3.39-42.747 115.41-9.481Zm107.91-26.306-42.56 3.496 16.86 212.576 42.56-3.497-7.05-88.958 54.06-4.441-2.81-35.429-54.06 4.441Zm86.67-137.578C3346.98-834.47 4274.04 91.653 4272.83 1235.3c-1.2 1143.65-930.22 2071.74-2075.02 2072.95-1144.79 1.22-2071.854-924.9-2070.645-2068.55C128.374 96.054 1057.39-832.039 2202.19-833.255Z"/></g></svg>